#!OML:ASF H:\GeneralSubjects\Female5\Project 1\Capture day 1\Session 1\Female5.ASF
:FULLY-SPECIFIED
:DEGREES
193
root -26.9929 13.1798 1.83353 224.723 -70.1052 -208.661
lowerback 22.3664 -1.16249 -0.57056
upperback -7.47674 -1.11181 3.79249
thorax -21.1215 -0.0556414 5.13818
lowerneck -20.9794 1.97919 0.392656
upperneck 14.4497 3.95567 -7.64205
head 8.10728 1.04845 -2.12695
rclavicle -2.22639e-014 -3.18055e-015
rhumerus 6.91453 28.6868 -67.5313
rradius 100.829
rwrist -39.7835
rhand -40.4849 -28.8086
rfingers 7.12502
rthumb -13.4352 -58.3553
lclavicle -2.22639e-014 -3.18055e-015
lhumerus 17.9643 -45.0948 82.0009
lradius 84.7962
lwrist 13.0836
lhand -46.0832 65.1935
lfingers 7.12502
lthumb -18.8257 265.697
rfemur -68.156 9.69761 17.4616
rtibia 43.7569
rfoot 3.31379 -11.3271
rtoes -5.38524
lfemur -23.993 12.8689 -35.8955
ltibia 80.6658
lfoot -30.4793 -11.6733
ltoes -43.6118
194
root -27.2441 13.1346 1.75391 225.244 -69.1688 -209.308
lowerback 22.6219 -0.920958 -1.30874
upperback -7.30817 -1.06292 3.46243
thorax -21.0455 0.0348279 5.15418
lowerneck -20.8749 1.74761 0.646149
upperneck 14.1438 3.55172 -7.69256
head 7.97322 0.88008 -2.23515
rclavicle 3.69739e-014 -2.8625e-014
rhumerus 4.40411 30.5162 -67.2771
rradius 99.3143
rwrist -42.9843
rhand -40.4763 -27.5463
rfingers 7.12502
rthumb -13.4269 -57.0935
lclavicle 3.69739e-014 -2.8625e-014
lhumerus 15.287 -46.6793 82.5037
lradius 83.7522
lwrist 13.4303
lhand -45.8582 64.3638
lfingers 7.12502
lthumb -18.6093 266.506
rfemur -68.6007 8.62846 18.1647
rtibia 46.4631
rfoot 2.05029 -10.0026
rtoes -1.78715
lfemur -27.039 12.6085 -36.9489
ltibia 83.3166
lfoot -31.1797 -9.72538
ltoes -44.4788
195
root -27.474 13.0877 1.65391 224.831 -68.6691 -208.567
lowerback 22.2302 -0.670897 -2.02878
upperback -7.31751 -0.940646 3.50448
thorax -20.8286 0.178467 5.55414
lowerneck -20.8446 1.72417 -0.524636
upperneck 15.3579 3.57577 -5.6667
head 8.30727 1.01462 -1.36507
rclavicle 9.78021e-014 -6.83819e-014
rhumerus 1.42679 32.1531 -67.7403
rradius 97.1935
rwrist -45.8448
rhand -39.8794 -29.3474
rfingers 7.12502
rthumb -12.8515 -58.9317
lclavicle 9.78021e-014 -6.83819e-014
lhumerus 12.1121 -48.4109 83.2006
lradius 82.4003
lwrist 13.6373
lhand -44.9335 62.4309
lfingers 7.12502
lthumb -17.7197 268.356
rfemur -69.7125 9.4294 18.2333
rtibia 49.9468
rfoot -0.929656 -9.67915
rtoes 5.27198
lfemur -30.824 12.3882 -37.3144
ltibia 85.736
lfoot -31.8365 -8.78571
ltoes -44.1875
196
root -27.6927 13.065 1.56602 224.239 -68.723 -207.52
lowerback 21.6614 -0.64075 -1.87719
upperback -7.34723 -0.85072 3.52869
thorax -20.538 0.185347 5.44367
lowerneck -16.9202 1.72901 -4.57463
upperneck 12.1181 3.43357 -0.15174
head 6.38218 1.41731 1.03874
rclavicle 2.10712e-014 3.97569e-014
rhumerus -1.65192 33.1378 -68.7504
rradius 94.7128
rwrist -47.6745
rhand -37.7389 -32.5834
rfingers 7.12502
rthumb -10.7874 -62.2863
lclavicle 2.10712e-014 3.97569e-014
lhumerus 9.35381 -50.6755 83.2273
lradius 80.9399
lwrist 14.4726
lhand -44.4786 60.7633
lfingers 7.12502
lthumb -17.2819 269.985
rfemur -70.2227 9.46668 19.2353
rtibia 52.2753
rfoot -2.59822 -9.05752
rtoes 6.69897
lfemur -34.6965 11.827 -37.3416
ltibia 87.7739
lfoot -32.6148 -7.60982
ltoes -45.4844
197
root -27.903 13.0728 1.49747 223.395 -68.8424 -206.531
lowerback 21.5454 -0.692847 -1.34375
upperback -7.3782 -0.770486 3.48075
thorax -20.5212 0.142479 5.05053
lowerneck -16.9261 1.37851 -4.36711
upperneck 12.4064 2.89509 -0.00528443
head 6.48852 1.17461 1.00166
rclavicle 8.15017e-014 6.36111e-015
rhumerus -4.95805 34.5464 -70.0468
rradius 92.8295
rwrist -51.7007
rhand -36.4491 -31.4719
rfingers 7.12502
rthumb -9.54316 -61.2358
lclavicle 8.15017e-014 6.36111e-015
lhumerus 6.65431 -53.2885 82.9769
lradius 79.6579
lwrist 15.6528
lhand -45.08 59.5072
lfingers 7.12502
lthumb -17.8606 448.707
rfemur -69.7909 8.80474 20.7863
rtibia 53.4924
rfoot -3.29293 -8.11644
rtoes 4.66245
lfemur -37.6549 11.3523 -37.377
ltibia 88.9521
lfoot -33.0539 -7.53674
ltoes -45.5423
198
root -28.094 13.0949 1.42367 221.296 -68.2304 -204.542
lowerback 21.2172 -0.363293 -1.64653
upperback -6.94525 -0.379187 3.66577
thorax -19.8092 0.336465 5.2533
lowerneck -17.0092 1.1549 -4.3989
upperneck 12.2489 2.60794 -0.0438827
head 6.4586 1.03415 0.964552
rclavicle -3.18055e-015 -2.22639e-014
rhumerus -7.35763 35.9084 -70.6351
rradius 91.6006
rwrist -52.9805
rhand -34.8522 -31.7749
rfingers 7.12502
rthumb -8.00212 -61.6034
lclavicle -3.18055e-015 -2.22639e-014
lhumerus 5.05516 -55.1336 82.246
lradius 78.5712
lwrist 15.1014
lhand -43.6346 57.8724
lfingers 7.12502
lthumb -16.4694 447.193
rfemur -68.8948 9.68323 21.7724
rtibia 54.1885
rfoot -4.15385 -7.69122
rtoes 3.40077
lfemur -39.7566 11.9883 -37.3942
ltibia 89.2359
lfoot -32.8837 -7.87969
ltoes -44.2935
199
root -28.2833 13.1135 1.40449 221.595 -68.3516 -204.778
lowerback 20.9239 -0.594006 -0.667015
upperback -6.9566 -0.452038 3.41329
thorax -19.6382 0.154118 4.42338
lowerneck -16.9615 0.902967 -4.16087
upperneck 12.2742 2.23814 -0.235921
head 6.47246 0.849513 0.826615
rclavicle -1.74931e-014 0
rhumerus -10.7676 37.0659 -72.0272
rradius 91.182
rwrist -53.8721
rhand -34.2783 -30.2275
rfingers 7.12502
rthumb -7.44817 -60.0764
lclavicle -1.74931e-014 0
lhumerus 2.55552 -57.1318 82.1899
lradius 77.9636
lwrist 14.4887
lhand -41.9454 56.9616
lfingers 7.12502
lthumb -14.8426 446.41
rfemur -68.5781 8.86133 22.2073
rtibia 55.687
rfoot -6.09356 -6.7248
rtoes 7.4126
lfemur -42.2158 11.0441 -38.135
ltibia 89.6651
lfoot -32.1233 -7.85646
ltoes -43.9659
200
root -28.4337 13.1671 1.39938 218.463 -67.8733 -202.177
lowerback 22.0443 -0.536271 0.735049
upperback -6.86824 0.0275469 3.16264
thorax -20.2172 0.170489 3.17864
lowerneck -17.5655 0.500677 -2.47792
upperneck 12.5584 1.62036 -2.17077
head 6.71117 0.44765 -0.130041
rclavicle -1.66979e-014 -6.52014e-014
rhumerus -14.1334 38.065 -73.7226
rradius 91.2391
rwrist -54.5333
rhand -32.2722 -33.8354
rfingers 7.12502
rthumb -5.51152 -63.7437
lclavicle -1.66979e-014 -6.52014e-014
lhumerus -0.414962 -58.5482 82.5789
lradius 78.1583
lwrist 13.3063
lhand -41.7911 51.9788
lfingers 7.12502
lthumb -14.6939 441.438
rfemur -66.6855 9.43867 23.3728
rtibia 55.4152
rfoot -6.61574 -5.80355
rtoes 8.77101
lfemur -43.4645 11.8142 -38.2312
ltibia 89.3191
lfoot -30.6489 -10.2048
ltoes -42.4951
201
root -28.5615 13.2126 1.39331 216.965 -67.4192 -200.858
lowerback 22.3609 -0.485402 0.881269
upperback -6.74164 0.197576 3.45916
thorax -20.2567 0.247218 3.37022
lowerneck -20.5976 0.352012 0.157352
upperneck 15.4749 1.56497 -6.04633
head 8.25254 0.0687938 -1.86825
rclavicle 1.98785e-015 4.92986e-014
rhumerus -16.3942 39.9041 -74.2831
rradius 91.4704
rwrist -56.692
rhand -30.4649 -37.1367
rfingers 7.12502
rthumb -3.76645 -67.0832
lclavicle 1.98785e-015 4.92986e-014
lhumerus -3.69328 -58.3242 84.1913
lradius 78.2583
lwrist 9.44178
lhand -39.7132 52.8715
lfingers 7.12502
lthumb -12.6913 442.466
rfemur -65.7707 9.66086 23.9713
rtibia 55.2876
rfoot -6.71573 -5.80239
rtoes 6.84815
lfemur -45.4067 12.12 -38.9072
ltibia 89.2799
lfoot -28.0168 -13.183
ltoes -39.0625
202
root -28.677 13.2586 1.3782 216.415 -66.7863 -200.408
lowerback 22.4509 -0.362604 0.579065
upperback -6.72562 0.308079 3.66626
thorax -20.3057 0.34991 3.73792
lowerneck -19.6325 0.245733 -0.427573
upperneck 14.5692 1.45438 -5.70385
head 7.77308 0.0525906 -1.65602
rclavicle 1.98785e-014 -3.49861e-014
rhumerus -18.4622 41.6392 -74.7848
rradius 91.3005
rwrist -59.0383
rhand -27.1533 -33.4041
rfingers 7.12502
rthumb -0.56811 -63.3831
lclavicle 1.98785e-014 -3.49861e-014
lhumerus -7.29473 -57.7159 86.4729
lradius 78.3408
lwrist 5.22587
lhand -41.4781 52.9609
lfingers 7.12502
lthumb -14.3923 442.442
rfemur -65.3205 9.9005 24.0778
rtibia 55.3174
rfoot -6.46765 -6.31849
rtoes 2.22934
lfemur -47.385 12.3894 -40.0047
ltibia 89.1251
lfoot -24.7988 -14.2783
ltoes -35.0277
203
root -28.7881 13.3096 1.36132 216.547 -66.1117 -200.629
lowerback 22.2739 -0.33493 0.223969
upperback -6.74909 0.23535 3.6865
thorax -20.2311 0.365674 3.9894
lowerneck -19.6965 0.207214 0.0624864
upperneck 14.7023 1.38715 -6.36471
head 7.83623 -0.0263423 -1.96776
rclavicle -6.36111e-015 3.97569e-014
rhumerus -20.2809 43.2889 -75.4264
rradius 91.0749
rwrist -60.931
rhand -23.0773 -28.7888
rfingers 7.12502
rthumb 3.36848 -58.742
lclavicle -6.36111e-015 3.97569e-014
lhumerus -10.5906 -56.7942 88.6298
lradius 78.4965
lwrist 1.87159
lhand -41.6414 52.9434
lfingers 7.12502
lthumb -14.5497 442.413
rfemur -65.0532 10.0148 23.8612
rtibia 55.5654
rfoot -6.40639 -6.5562
rtoes -0.971523
lfemur -49.0125 12.7051 -41.4497
ltibia 88.7252
lfoot -23.8018 -15.3518
ltoes -36.2251
204
root -28.8866 13.365 1.34094 216.727 -65.5873 -200.892
lowerback 22.0887 -0.381827 -0.242195
upperback -6.87671 0.0452789 3.8067
thorax -20.2794 0.357149 4.47015
lowerneck -19.5379 0.321627 0.388669
upperneck 14.8955 1.52129 -6.72357
head 7.88439 0.015054 -2.12672
rclavicle 4.21423e-014 -2.06736e-014
rhumerus -21.9612 45.0109 -76.182
rradius 90.9901
rwrist -61.5574
rhand -19.6372 -29.2758
rfingers 7.12502
rthumb 6.69009 -59.1502
lclavicle 4.21423e-014 -2.06736e-014
lhumerus -13.7431 -55.926 90.9134
lradius 79.0409
lwrist 0.0407514
lhand -41.9316 53.6097
lfingers 7.12502
lthumb -14.8293 443.059
rfemur -64.8743 10.5753 23.3101
rtibia 56.0658
rfoot -6.92706 -6.85121
rtoes -0.912061
lfemur -50.3667 13.1837 -42.9533
ltibia 88.3458
lfoot -23.3342 -12.1706
ltoes -38.8981
205
root -28.9721 13.4221 1.32001 216.64 -65.2528 -200.925
lowerback 21.6206 -0.448201 -0.525228
upperback -6.83188 -0.118108 3.9561
thorax -19.9348 0.326985 4.8528
lowerneck -19.5646 0.416349 0.347126
upperneck 15.032 1.64697 -6.59087
head 7.93754 0.0825632 -2.06168
rclavicle -4.05521e-014 -5.08889e-014
rhumerus -22.5392 45.8888 -76.4016
rradius 90.574
rwrist -59.485
rhand -15.6419 -29.0383
rfingers 7.12502
rthumb 10.5456 -58.7537
lclavicle -4.05521e-014 -5.08889e-014
lhumerus -15.7046 -55.4763 92.3918
lradius 79.8272
lwrist -1.04522
lhand -42.3144 53.3139
lfingers 7.12502
lthumb -15.198 442.736
rfemur -64.323 10.5495 23.2454
rtibia 55.992
rfoot -6.96222 -6.68643
rtoes 1.01589
lfemur -51.4276 13.8153 -44.3029
ltibia 87.9745
lfoot -23.9537 -12.2741
ltoes -42.4226
206
root -29.0502 13.4887 1.30233 216.473 -64.9771 -200.989
lowerback 21.248 -0.505458 -0.717123
upperback -6.8051 -0.238436 4.10413
thorax -19.672 0.303585 5.16687
lowerneck -19.6579 0.416927 0.105366
upperneck 15.1701 1.6803 -6.34986
head 7.99665 0.104303 -1.93915
rclavicle -1.23246e-014 -6.36111e-014
rhumerus -22.8924 46.4887 -76.5439
rradius 90.168
rwrist -57.7602
rhand -11.735 -29.5165
rfingers 7.12502
rthumb 14.3124 -59.0032
lclavicle -1.23246e-014 -6.36111e-014
lhumerus -17.1365 -55.4294 93.6791
lradius 80.7865
lwrist -2.02215
lhand -42.0588 52.6552
lfingers 7.12502
lthumb -14.9518 442.096
rfemur -63.6298 10.6413 23.0933
rtibia 55.873
rfoot -7.02431 -6.63277
rtoes 3.73033
lfemur -51.9522 14.6097 -45.5403
ltibia 87.3167
lfoot -23.2288 -11.0569
ltoes -44.4808
207
root -29.1192 13.5631 1.28962 216.33 -64.7858 -201.169
lowerback 20.8646 -0.612862 -0.719914
upperback -6.79453 -0.380272 4.19717
thorax -19.4182 0.241766 5.31627
lowerneck -19.6578 0.315395 -0.0879121
upperneck 15.164 1.59975 -6.39704
head 7.99169 0.0476259 -1.93366
rclavicle -3.97569e-014 -7.63333e-014
rhumerus -23.2287 46.8827 -76.8135
rradius 89.8283
rwrist -56.8494
rhand -7.98858 -29.1163
rfingers 7.12502
rthumb 17.9198 -58.3108
lclavicle -3.97569e-014 -7.63333e-014
lhumerus -17.9535 -55.7525 94.5602
lradius 81.5456
lwrist -2.8801
lhand -42.3324 50.7089
lfingers 7.12502
lthumb -15.2153 440.129
rfemur -62.8479 10.7219 22.9004
rtibia 55.6608
rfoot -6.9827 -6.80068
rtoes 5.12998
lfemur -51.9072 15.5175 -46.7397
ltibia 86.3255
lfoot -21.4841 -13.1118
ltoes -40.0668
